<svg width="504" height="142" viewBox="0 0 504 142" fill="none" xmlns="http://www.w3.org/2000/svg">
<rect width="503.018" height="142" rx="16" fill="#3A2E59"/>
<path d="M88.7358 78.6478C89.6949 77.5281 91.479 78.4984 91.1017 79.9345L85.8199 100.038C85.472 101.362 87.0005 102.357 88.0319 101.478L114.506 78.9148C114.952 78.5351 115.116 77.9111 114.916 77.3551L103.051 44.3146C102.588 43.0274 100.777 43.1099 100.429 44.434L94.5484 66.816C94.2635 67.9007 92.9069 68.2218 92.1825 67.3761L69.147 40.483C68.3106 39.5065 66.7342 40.1098 66.7342 41.4064V55.5834C66.7342 56.7064 65.5054 57.3747 64.5911 56.749L42.1461 41.39C41.0903 40.6675 39.7208 41.6664 40.0498 42.9188L55.0704 100.089C55.3995 101.342 57.0753 101.508 57.6354 100.344L64.1224 86.8634C64.7646 85.5286 66.7342 85.9949 66.7342 87.4817V100.594C66.7342 101.89 68.3106 102.493 69.147 101.517L88.7358 78.6478Z" fill="#C5FF49"/>
<path d="M455.668 72.8901C461.548 74.1081 463.018 76.8801 463.018 80.4081C463.018 85.2381 460.33 88.8921 450.67 88.8921C440.632 88.8921 437.356 85.2801 437.356 79.1481V78.4341H443.236V79.1061C443.236 82.8861 445.672 84.0621 450.628 84.0621C455.584 84.0621 457.18 82.8441 457.18 80.7441C457.18 78.8961 455.794 77.9301 452.686 77.1741L446.302 75.8721C439.96 74.7801 438.238 72.0501 438.238 68.6481C438.238 64.3641 441.052 60.7521 449.872 60.7521C459.448 60.7521 462.304 64.6581 462.304 69.6981V70.3281H456.424V69.7401C456.424 66.5481 454.198 65.5821 449.872 65.5821C446.722 65.5821 444.118 66.2961 444.118 68.3541C444.118 69.8241 445.252 70.6641 448.192 71.2941L455.668 72.8901Z" fill="#D1D1FF"/>
<path d="M412.074 53.5281H417.744V72.2601H420.222L430.89 61.1721H438.114L424.506 74.7801L438.114 88.4721H430.89L420.012 77.1741H417.744V88.4721H412.074V53.5281Z" fill="#D1D1FF"/>
<path d="M392.098 61.1721V65.7081C393.316 62.9781 396.466 60.7521 400.498 60.7521C405.454 60.7521 409.15 63.5241 409.15 70.4961V73.6461H403.354V70.9581C403.354 67.5141 402.052 65.6241 398.608 65.6241C393.694 65.6241 392.098 69.3201 392.098 72.0921V88.4721H386.428V61.1721H392.098Z" fill="#D1D1FF"/>
<path d="M369.632 88.8921C360.854 88.8921 356.528 83.7261 356.528 75.7461V73.8981C356.528 65.9181 360.854 60.7521 369.632 60.7521C378.41 60.7521 382.694 65.9181 382.694 73.8981V75.7461C382.694 83.7261 378.41 88.8921 369.632 88.8921ZM362.366 76.0401C362.366 80.8281 364.298 83.9781 369.632 83.9781C374.924 83.9781 376.898 80.8281 376.898 76.0401V73.6041C376.898 68.8581 374.924 65.6661 369.632 65.6661C364.298 65.6661 362.366 68.8581 362.366 73.6041V76.0401Z" fill="#D1D1FF"/>
<path d="M315.324 88.472V61.172H320.91V84.566L331.62 61.172H341.196V84.44L350.52 61.172H356.652L345.06 88.472H335.568V64.616L324.816 88.472H315.324Z" fill="#D1D1FF"/>
<path d="M304.345 72.8901C310.225 74.1081 311.695 76.8801 311.695 80.4081C311.695 85.2381 309.007 88.8921 299.347 88.8921C289.309 88.8921 286.033 85.2801 286.033 79.1481V78.4341H291.913V79.1061C291.913 82.8861 294.349 84.0621 299.305 84.0621C304.261 84.0621 305.857 82.8441 305.857 80.7441C305.857 78.8961 304.471 77.9301 301.363 77.1741L294.979 75.8721C288.637 74.7801 286.915 72.0501 286.915 68.6481C286.915 64.3641 289.729 60.7521 298.549 60.7521C308.125 60.7521 310.981 64.6581 310.981 69.6981V70.3281H305.101V69.7401C305.101 66.5481 302.875 65.5821 298.549 65.5821C295.399 65.5821 292.795 66.2961 292.795 68.3541C292.795 69.8241 293.929 70.6641 296.869 71.2941L304.345 72.8901Z" fill="#D1D1FF"/>
<path d="M277.224 72.1341C277.224 68.9841 276.3 65.6241 271.764 65.6241C266.556 65.6241 265.716 69.9501 265.716 72.2181V88.4721H260.046V72.1341C260.046 69.0681 259.122 65.6241 254.586 65.6241C249.42 65.6241 248.538 69.9501 248.538 72.2181V88.4721H242.868V61.1721H248.538V64.5741C250.176 62.0541 252.654 60.7521 256.14 60.7521C260.55 60.7521 263.154 62.7681 264.498 65.5401C266.136 62.7681 268.908 60.7521 273.192 60.7521C279.702 60.7521 282.894 65.2041 282.894 71.0841V88.4721H277.224V72.1341Z" fill="#D1D1FF"/>
<path d="M212.68 75.7461V73.8141C212.68 65.9181 217.09 60.7521 226.246 60.7521C234.394 60.7521 239.098 65.3721 239.098 73.8561V76.1241H218.602C218.602 80.8281 220.828 83.9781 226.288 83.9781C230.446 83.9781 232.21 82.0881 232.588 79.9461L232.63 79.3161H238.888L238.846 79.6521C238.216 84.9861 234.1 88.8921 226.246 88.8921C217.09 88.8921 212.68 83.7261 212.68 75.7461ZM218.686 72.0081H233.176V71.2521C232.672 67.5981 230.152 65.6661 226.036 65.6661C221.458 65.6661 219.19 68.1441 218.686 72.0081Z" fill="#D1D1FF"/>
<path d="M203.347 53.5281H209.017V88.4721H203.347V53.5281Z" fill="#D1D1FF"/>
<path d="M192.753 53.5281H198.423V88.4721H192.753V53.5281Z" fill="#D1D1FF"/>
<path d="M182.16 61.172H187.83V88.472H182.16V61.172ZM181.446 55.964C181.446 54.242 182.622 53.108 184.974 53.108C187.368 53.108 188.544 54.242 188.544 55.964C188.544 57.518 187.368 58.736 184.974 58.736C182.622 58.736 181.446 57.518 181.446 55.964Z" fill="#D1D1FF"/>
<path d="M139 88.472V61.172H144.586V84.566L155.296 61.172H164.872V84.44L174.196 61.172H180.328L168.736 88.472H159.244V64.616L148.492 88.472H139Z" fill="#D1D1FF"/>
</svg>
